<svg xmlns="http://www.w3.org/2000/svg" width="382" height="104" fill="none"><path fill="#F0F0F0" d="M86.044 13.594c.588-.823 8.666-.549 10.272-.555.706-.007 1.53-.073 2.207.139 1.452.454 4.914 7.41 5.848 9.061 3.072-.017 19.954-.446 21.144.124.421.202.812.793 1.066 1.165.727 1.066 4.841 8.217 5.059 9.033.105.392.138.797.019 1.191-.56 1.847-4.051 7.092-5.201 9.082 1.104 1.534 10.375 17.063 10.461 18.231.034.475-.242 1.08-.441 1.496-.629 1.316-4.794 8.598-5.488 9.283-1.038 1.022-8.781.55-10.796.55-1.138 2.335-9.349 16.965-10.345 18.002-.973 1.012-9.32.561-11.075.554l-1.686-.13c-1.183-1.204-4.416-7.343-5.413-9.166-2.731.023-20.753.288-21.646-.157-1.095-.55-6.02-9.22-6.464-10.713-.382-1.285 4.123-8.156 4.95-9.562C67.3 59.54 58.057 44.029 58.001 43.066c-.069-1.164 5.029-9.899 6.076-10.85 1.007-.912 9.448-.33 11.258-.292 1.052-2.285 3.685-6.413 5.011-8.806 1.485-2.678 3.994-7.139 5.698-9.524m27.613 29.542c-1.573 3.054-3.758 6.658-5.498 9.699L98.042 70.496l-3.545 6.185c-.52.906-1.473 2.465-1.88 3.363.67.685 4.667 7.725 5.38 8.961 1.91-3.765 4.987-8.793 7.129-12.545l14.025-24.561c1.01 2.187 3.977 7.053 5.284 9.358l10.701-.012c-3.526-5.914-6.787-12.146-10.291-18.106zm-37.941-9.4c-2.83-.208-7.902.01-10.515-.034 2.62 4.286 5.192 8.837 7.728 13.187l13.766 23.619-10.789-.022c-1.281 2.635-3.73 6.603-5.242 9.238l13.948.148c1.17.012 6.706.223 7.273-.212.175-.618 1.212-2.276 1.563-2.91 1.176-2.127 2.72-4.396 3.773-6.568-1.14-.95-14.158-24.043-15.931-27.11l-2.247-3.883c-.601-1.014-2.565-4.215-2.912-5.136zm4.61-6.882c-1.226 2.095-2.584 4.546-3.903 6.557a403 403 0 0 1 3.242 5.27l2.369 3.858c.9-.097 3.357-.041 4.392-.043l8.816-.014 29.365-.05c1.588-2.973 3.575-6.261 5.269-9.215l-42.67.217c1.678-2.52 3.872-6.581 5.492-9.314-1.59-2.358-3.879-6.612-5.367-9.209zm93.019-4.141c10.78-1.195 22.007 4.655 24.983 15.336 3.178 11.404.085 22.26-9.03 29.73 2.265 2.344 5.899 6.975 8.098 9.61l-9.296.002c-.83-1.19-2.455-2.95-3.446-4.089l-1.734-2.01c-2.61 1.141-5.637 1.803-8.427 2.08-13.451 1.329-25.328-6.72-26.117-20.781-.073-2.665-.364-6.158.27-8.73 3.024-12.27 12.168-20.222 24.699-21.148m.234 6.799c-4.681.159-8.989 2.382-12.162 5.783a21.2 21.2 0 0 0-5.636 15.331c.164 4.614 1.801 8.874 5.239 12.027 5.008 4.593 11.022 4.675 17.244 3.107l-2.655-3.174-3.991-4.776q4.588.015 9.175-.019c1.11 1.506 2.753 3.14 3.731 4.545 1.298-1.17 2.498-2.307 3.482-3.76 8.08-11.939 3.339-28.578-12.513-29.057a48 48 0 0 0-1.914-.007m96.836 10.39c7.163-.64 12.595 1.407 15.335 8.619 1.15 3.025.964 6.182.726 9.354-8.002.05-16.031-.07-24.031.031.516 5.426 2.572 9.827 9.202 9.25 2.976-.26 5.507-2.325 7.299-4.629l1.209.976a212 212 0 0 0 3.983 3.138c-3.047 3.606-5.809 6.028-10.706 6.702-16.748 2.302-23.158-14.705-14.34-27.156 2.606-3.68 6.874-5.703 11.323-6.285m1.638 6.081c-4.463.374-7.583 2.158-8.834 6.755 2.522.116 5.144.074 7.677.068l8.493-.016c-.544-4.463-2.662-6.877-7.336-6.806M228.68 38.64c.313.325 1.326 4.111 1.488 4.813 1.357 5.865 3.924 12.281 4.563 18.234 1.097-3.393 2.837-5.921 4.553-8.977 2.22-3.957 4.755-7.96 6.887-11.944 2.704.035 5.449.014 8.156.019l-21.301 33.439c-.357-1.753-1.089-3.712-1.57-5.455-1.336-4.843-3.281-10.066-4.374-14.931l-.17-1.697c-1.736 3.648-3.595 6.588-5.673 10.036l-7.209 11.998c-1.034-3.437-2.561-7.488-3.755-10.918l-7.769-22.389 7.218-.027c1.152 4.296 2.862 8.86 4.134 13.162.79 2.68 1.633 4.736 2.058 7.58 1.291-3.79 3.735-7.538 5.788-11.035zm84.031 1.264c14.176-.503 11.927 9.955 10.613 19.935a1091 1091 0 0 1-1.676 12.493l-7.046.006c.672-5.947 1.598-11.827 2.295-17.834.464-4.002.168-8.85-5.092-9.191-2.903-.189-5.06.56-7.241 2.53-3.38 3.967-3.564 8.906-4.19 13.86l-1.337 10.62-7.155.01c.527-2.576 1.049-7.805 1.422-10.627l2.731-20.805c2.231.091 4.653.057 6.897.064a251 251 0 0 1-.591 3.757c3.322-2.88 5.954-4.339 10.37-4.818"/></svg>